<?xml version="1.0" encoding="utf-8"?>
<!-- Generator: Adobe Illustrator 16.0.0, SVG Export Plug-In . SVG Version: 6.00 Build 0)  -->
<!DOCTYPE svg PUBLIC "-//W3C//DTD SVG 1.1//EN" "http://www.w3.org/Graphics/SVG/1.1/DTD/svg11.dtd">
<svg version="1.1" id="check_list" xmlns="http://www.w3.org/2000/svg" xmlns:xlink="http://www.w3.org/1999/xlink" x="0px" y="0px"
	 width="815.217px" height="822.827px" viewBox="0 0 815.217 822.827" enable-background="new 0 0 815.217 822.827"
	 xml:space="preserve">
<g id="parts">
	<path fill="none" stroke="#000000" stroke-width="2" d="M7.114,391.829c2.186,12.005,18.854,23.432,26.688,31.417
		c23.06,23.509,46.121,47.018,69.181,70.527c62.683,63.901,125.366,127.803,188.049,191.705
		c34.805,35.481,69.609,70.963,104.414,106.444c17.438,17.777,39.45,18.514,60.289,6.594c21.424-12.255,42.848-24.51,64.271-36.765
		c64.159-36.7,128.317-73.4,192.476-110.101c23.23-13.288,46.46-26.576,69.69-39.864c13.216-7.56,26.07-13.658,24.796-31.839
		c0.305,10.792,1.479,26.817-9.825,33.25c-5.333,3.034-10.666,6.069-15.999,9.104c-29.355,16.705-58.711,33.411-88.067,50.116
		C621.318,713.254,549.559,754.09,477.8,794.926c-13.857,7.886-31.853,21.775-48.495,21.594
		c-18.536-0.203-31.076-12.161-43.118-24.35c-48.531-49.123-97.062-98.245-145.593-147.367
		c-55.05-55.721-110.101-111.441-165.15-167.162c-16.73-16.935-33.46-33.868-50.191-50.803
		C14.713,416.169,6.795,408.266,7.114,391.829z"/>
	<path fill="none" stroke="#000000" stroke-width="2" d="M7.114,391.829c2.186,12.005,18.854,23.432,26.688,31.417
		c23.06,23.509,46.121,47.018,69.181,70.527c62.683,63.901,125.366,127.803,188.049,191.705
		c34.805,35.481,69.609,70.963,104.414,106.444c17.438,17.777,39.45,18.514,60.289,6.594c21.424-12.255,42.848-24.51,64.271-36.765
		c64.159-36.7,128.317-73.4,192.476-110.101c23.23-13.288,46.46-26.576,69.69-39.864c13.216-7.56,26.07-13.658,24.796-31.839
		c0.305,10.792,1.479,26.817-9.825,33.25c-5.333,3.034-10.666,6.069-15.999,9.104c-29.355,16.705-58.711,33.411-88.067,50.116
		C621.318,713.254,549.559,754.09,477.8,794.926c-13.857,7.886-31.853,21.775-48.495,21.594
		c-18.536-0.203-31.076-12.161-43.118-24.35c-48.531-49.123-97.062-98.245-145.593-147.367
		c-55.05-55.721-110.101-111.441-165.15-167.162c-16.73-16.935-33.46-33.868-50.191-50.803
		C14.713,416.169,6.795,408.266,7.114,391.829"/>
	<path fill="none" stroke="#000000" stroke-width="2" d="M790.935,579.234c0-6.136,0.113-11.766,1.064-17.814
		c11.116,12.42,19.752,19.658,10.479,36.164c-2.887,5.14-8.793,7.617-13.658,10.399c-26.156,14.962-52.312,29.924-78.468,44.886
		c-73.48,42.032-146.961,84.065-220.441,126.098c-15.248,8.722-30.656,19.711-47.423,25.438
		c-20.372,6.959-36.95-2.194-51.152-16.672c-43.773-44.625-87.547-89.25-131.321-133.875
		c-60.955-62.14-121.909-124.279-182.864-186.419c-18.912-19.28-37.823-38.56-56.735-57.839c-3.208-3.27-6.415-6.54-9.623-9.81
		c-9.273-9.454,0.246-23.988,10.571-27.556c0,6.162-2.048,13.93,2.407,18.505c3.7,3.8,7.359,7.644,11.105,11.397
		c3.62,3.627,7.24,7.253,10.86,10.88c19.59,19.626,39.18,39.252,58.77,58.878c62.304,62.418,124.607,124.837,186.911,187.255
		c43.084,43.163,86.168,86.326,129.252,129.489c6.676,6.689,18.302-5.404,25.338-9.482c30.228-17.521,60.455-35.04,90.683-52.561
		C621.439,677.476,706.187,628.355,790.935,579.234L790.935,579.234z"/>
	<path fill="none" stroke="#000000" stroke-width="2" d="M790.935,579.234c0-6.136,0.113-11.766,1.064-17.814
		c11.116,12.42,19.752,19.658,10.479,36.164c-2.887,5.14-8.793,7.617-13.658,10.399c-26.156,14.962-52.312,29.924-78.468,44.886
		c-73.48,42.032-146.961,84.065-220.441,126.098c-15.248,8.722-30.656,19.711-47.423,25.438
		c-20.372,6.959-36.95-2.194-51.152-16.672c-43.773-44.625-87.547-89.25-131.321-133.875
		c-60.955-62.14-121.909-124.279-182.864-186.419c-18.912-19.28-37.823-38.56-56.735-57.839c-3.208-3.27-6.415-6.54-9.623-9.81
		c-9.273-9.454,0.246-23.988,10.571-27.556c0,6.162-2.048,13.93,2.407,18.505c3.7,3.8,7.359,7.644,11.105,11.397
		c3.62,3.627,7.24,7.253,10.86,10.88c19.59,19.626,39.18,39.252,58.77,58.878c62.304,62.418,124.607,124.837,186.911,187.255
		c43.084,43.163,86.168,86.326,129.252,129.489c6.676,6.689,18.302-5.404,25.338-9.482c30.228-17.521,60.455-35.04,90.683-52.561
		C621.439,677.476,706.187,628.355,790.935,579.234"/>
	<path fill="none" stroke="#000000" stroke-width="2" d="M235.133,217.253c3.163-18.982-3.632-35.486-24.003-40.181
		c-18.74-4.319-39.118,7.911-48.969,23.383c-9.558,15.012,0.553,38.456,17.392,43.162c9.598,2.682,16.951-4.291,24.874-8.818
		C214.663,228.95,224.898,223.102,235.133,217.253L235.133,217.253z"/>
	<path fill="none" stroke="#000000" stroke-width="2" d="M235.133,217.253c3.163-18.982-3.632-35.486-24.003-40.181
		c-18.74-4.319-39.118,7.911-48.969,23.383c-9.558,15.012,0.553,38.456,17.392,43.162c9.598,2.682,16.951-4.291,24.874-8.818
		C214.663,228.95,224.898,223.102,235.133,217.253"/>
	<path fill="none" stroke="#000000" stroke-width="2" d="M206.987,222.24c-8.591,3.904-18.497,6.441-25.982-1.042
		c-8.141-8.138,0.108-18.753,7.033-23.696C206.611,184.242,229.073,209.546,206.987,222.24L206.987,222.24L206.987,222.24z"/>
	<path fill="none" stroke="#000000" stroke-width="2" d="M206.987,222.24c-8.591,3.904-18.497,6.441-25.982-1.042
		c-8.141-8.138,0.108-18.753,7.033-23.696C206.611,184.242,229.073,209.546,206.987,222.24"/>
	<path fill="none" stroke="#000000" stroke-width="2" d="M156.751,282.094c-18.344-16.313-43.582,1.282-40.617,23.517
		C129.673,297.772,143.212,289.933,156.751,282.094L156.751,282.094z"/>
	<path fill="none" stroke="#000000" stroke-width="2" d="M156.751,282.094c-18.344-16.313-43.582,1.282-40.617,23.517
		C129.673,297.772,143.212,289.933,156.751,282.094"/>
	<path fill="none" stroke="#000000" stroke-width="2" d="M288.578,187.682c10.013-0.751,20.432,4.947,24.225,14.429
		c4.972,12.428-0.806,22.894-5.402,34.496c-2.488,6.281-10.395,8.54-16.114,11.766c-14.561,8.213-29.122,16.425-43.683,24.638
		c-13.988,7.889-27.975,15.779-41.963,23.668c-5.208,2.938-13.288,10.411-19.329,8.279c-7.005-2.473-14.01-4.945-21.015-7.417
		c-0.984-0.347-3.697-9.712-5.24-11.537c-7.428-8.784-18.541-12.865-29.671-8.184c26.192-15.293,52.354-30.63,78.688-45.677
		c12.052-6.886,24.114-13.748,36.085-20.774c9.031-5.301,18.062-10.602,27.093-15.902
		C277.059,192.646,282.675,187.727,288.578,187.682L288.578,187.682z"/>
	<path fill="none" stroke="#000000" stroke-width="2" d="M288.578,187.682c10.013-0.751,20.432,4.947,24.225,14.429
		c4.972,12.428-0.806,22.894-5.402,34.496c-2.488,6.281-10.395,8.54-16.114,11.766c-14.561,8.213-29.122,16.425-43.683,24.638
		c-13.988,7.889-27.975,15.779-41.963,23.668c-5.208,2.938-13.288,10.411-19.329,8.279c-7.005-2.473-14.01-4.945-21.015-7.417
		c-0.984-0.347-3.697-9.712-5.24-11.537c-7.428-8.784-18.541-12.865-29.671-8.184c26.192-15.293,52.354-30.63,78.688-45.677
		c12.052-6.886,24.114-13.748,36.085-20.774c9.031-5.301,18.062-10.602,27.093-15.902
		C277.059,192.646,282.675,187.727,288.578,187.682"/>
	<path fill="none" stroke="#000000" stroke-width="2" d="M163.521,291.715c-0.146,9.116,14.145,10.19,20.848,12.557
		c5.609,1.98,5.8,1.133,10.94-1.766c19.86-11.202,39.721-22.403,59.582-33.605c16.701-9.42,33.401-18.839,50.102-28.259
		c4.419-2.493,6.499-14.363,8.348-19.031c2.898-7.316,1.682-15.208-1.607-22.172c7.134,10.702,14.206,21.444,21.277,32.187
		c3.521,5.349,4.548,5.834,3.25,11.957c-0.567,2.673-1.668,16.97-3.918,18.238c-22.439,12.648-44.879,25.295-67.318,37.943
		c-23.19,13.071-46.381,26.142-69.571,39.212c-2.764,1.558-26.333-5.208-28.354-7.942c-7.844-10.612-15.687-21.225-23.531-31.836
		c6.175-3.563,12.351-7.126,18.526-10.689C162.57,289.577,163.046,290.646,163.521,291.715L163.521,291.715z"/>
	<path fill="none" stroke="#000000" stroke-width="2" d="M163.521,291.715c-0.146,9.116,14.145,10.19,20.848,12.557
		c5.609,1.98,5.8,1.133,10.94-1.766c19.86-11.202,39.721-22.403,59.582-33.605c16.701-9.42,33.401-18.839,50.102-28.259
		c4.419-2.493,6.499-14.363,8.348-19.031c2.898-7.316,1.682-15.208-1.607-22.172c7.134,10.702,14.206,21.444,21.277,32.187
		c3.521,5.349,4.548,5.834,3.25,11.957c-0.567,2.673-1.668,16.97-3.918,18.238c-22.439,12.648-44.879,25.295-67.318,37.943
		c-23.19,13.071-46.381,26.142-69.571,39.212c-2.764,1.558-26.333-5.208-28.354-7.942c-7.844-10.612-15.687-21.225-23.531-31.836
		c6.175-3.563,12.351-7.126,18.526-10.689C162.57,289.577,163.046,290.646,163.521,291.715"/>
	<path fill="none" stroke="#000000" stroke-width="2" d="M34.547,372.948c38.359-21.852,76.719-43.705,115.078-65.557
		c-2.019-2.731-4.038-5.462-6.057-8.193c6.175-3.563,12.351-7.126,18.526-10.689c-3.75-4.694-3.935-7.229-9.272-4.14
		c-7.762,4.494-15.523,8.988-23.285,13.482c-8.387,4.855-16.778,9.702-25.179,14.533c-27.665,15.913-55.33,31.825-82.994,47.738
		C25.759,364.397,30.153,368.672,34.547,372.948L34.547,372.948z"/>
	<path fill="none" stroke="#000000" stroke-width="2" d="M34.547,372.948c38.359-21.852,76.719-43.705,115.078-65.557
		c-2.019-2.731-4.038-5.462-6.057-8.193c6.175-3.563,12.351-7.126,18.526-10.689c-3.75-4.694-3.935-7.229-9.272-4.14
		c-7.762,4.494-15.523,8.988-23.285,13.482c-8.387,4.855-16.778,9.702-25.179,14.533c-27.665,15.913-55.33,31.825-82.994,47.738
		C25.759,364.397,30.153,368.672,34.547,372.948"/>
	<path fill="none" stroke="#000000" stroke-width="2" d="M388.334,149.56c4.275,4.394,8.551,8.789,12.826,13.183
		c-17.31,9.966-34.621,19.932-51.931,29.898c-9.074,5.224-18.148,10.448-27.222,15.672c-6.369,3.667-9.548-8.468-13.837-13.151
		C334.893,179.962,361.613,164.761,388.334,149.56L388.334,149.56z"/>
	<path fill="none" stroke="#000000" stroke-width="2" d="M388.334,149.56c4.275,4.394,8.551,8.789,12.826,13.183
		c-17.31,9.966-34.621,19.932-51.931,29.898c-9.074,5.224-18.148,10.448-27.222,15.672c-6.369,3.667-9.548-8.468-13.837-13.151
		C334.893,179.962,361.613,164.761,388.334,149.56"/>
	<path fill="none" stroke="#000000" stroke-width="2" d="M34.547,401.807c0-8.732,0-17.464,0-26.196
		c0-6.083-9.009-11.428-13.183-15.489c0,7.997,0,15.993,0,23.99C21.365,391.672,29.447,396.569,34.547,401.807L34.547,401.807z"/>
	<path fill="none" stroke="#000000" stroke-width="2" d="M34.547,401.807c0-8.732,0-17.464,0-26.196
		c0-6.083-9.009-11.428-13.183-15.489c0,7.997,0,15.993,0,23.99C21.365,391.672,29.447,396.569,34.547,401.807"/>
	<path fill="none" stroke="#000000" stroke-width="2" d="M423.96,749.18c-52.192-31.953-95.268-75.353-135.192-121.271
		c-12.609-14.502-27.439-27.544-40.999-41.142c-30.38-30.466-60.761-60.932-91.141-91.396
		c-40.694-40.808-81.387-81.615-122.081-122.423c0,6.619-3.629,25.224,1.058,29.919c4.392,4.4,8.784,8.8,13.175,13.2
		c20.683,20.721,41.366,41.442,62.049,62.163c62.688,62.804,125.376,125.606,188.064,188.41
		c41.688,41.766,83.377,83.53,125.066,125.296C423.96,777.684,423.96,763.432,423.96,749.18z"/>
	<path fill="none" stroke="#000000" stroke-width="2" d="M423.96,749.18c-52.192-31.953-95.268-75.353-135.192-121.271
		c-12.609-14.502-27.439-27.544-40.999-41.142c-30.38-30.466-60.761-60.932-91.141-91.396
		c-40.694-40.808-81.387-81.615-122.081-122.423c0,6.619-3.629,25.224,1.058,29.919c4.392,4.4,8.784,8.8,13.175,13.2
		c20.683,20.721,41.366,41.442,62.049,62.163c62.688,62.804,125.376,125.606,188.064,188.41
		c41.688,41.766,83.377,83.53,125.066,125.296V749.18"/>
	<path fill="none" stroke="#000000" stroke-width="2" d="M790.935,579.234c0-12.518,0.692-24.879,4.985-36.693
		c-118.836,66.019-237.672,132.037-356.509,198.056c-5.087,2.826-10.173,5.651-15.26,8.478c-3.628,2.016-0.191,37.271-0.191,42.862
		c117.243-67.955,234.487-135.911,351.73-203.866C780.772,585.125,785.854,582.179,790.935,579.234L790.935,579.234z"/>
	<path fill="none" stroke="#000000" stroke-width="2" d="M790.935,579.234c0-12.518,0.692-24.879,4.985-36.693
		c-118.836,66.019-237.672,132.037-356.509,198.056c-5.087,2.826-10.173,5.651-15.26,8.478c-3.628,2.016-0.191,37.271-0.191,42.862
		c117.243-67.955,234.487-135.911,351.73-203.866C780.772,585.125,785.854,582.179,790.935,579.234"/>
	<line fill="none" stroke="#000000" stroke-width="2" x1="293.208" y1="648.355" x2="423.96" y2="774.477"/>
	<line fill="none" stroke="#000000" stroke-width="2" x1="398.667" y1="749.896" x2="423.96" y2="768.066"/>
	<path fill="none" stroke="#000000" stroke-width="2" d="M288.578,627.69c20.353,22.277,41.098,44.126,65.223,62.415
		c12.866,9.753,25.814,19.15,39.52,27.723c6.909,4.321,14.054,8.305,21.07,12.45c4.306,2.545,13.168,9.23,17.767,8.928
		c3.64-0.239,9.747-5.445,12.833-7.169c11.431-6.386,22.861-12.771,34.292-19.157c35.905-20.058,71.81-40.116,107.715-60.174
		c47.327-26.439,94.654-52.878,141.981-79.317c15.576-8.701,31.152-17.403,46.729-26.104c7.297-4.077,13.041-10.942,20.212-4.743
		c-118.836,66.019-237.672,132.037-356.509,198.056c-8.104,4.502-12.628,10.313-20.697,5.372
		c-16.391-10.034-31.549-21.749-46.244-34.135C341.898,686.065,314.787,657.834,288.578,627.69L288.578,627.69z"/>
	<path fill="none" stroke="#000000" stroke-width="2" d="M288.578,627.69c20.353,22.277,41.098,44.126,65.223,62.415
		c12.866,9.753,25.814,19.15,39.52,27.723c6.909,4.321,14.054,8.305,21.07,12.45c4.306,2.545,13.168,9.23,17.767,8.928
		c3.64-0.239,9.747-5.445,12.833-7.169c11.431-6.386,22.861-12.771,34.292-19.157c35.905-20.058,71.81-40.116,107.715-60.174
		c47.327-26.439,94.654-52.878,141.981-79.317c15.576-8.701,31.152-17.403,46.729-26.104c7.297-4.077,13.041-10.942,20.212-4.743
		c-118.836,66.019-237.672,132.037-356.509,198.056c-8.104,4.502-12.628,10.313-20.697,5.372
		c-16.391-10.034-31.549-21.749-46.244-34.135C341.898,686.065,314.787,657.834,288.578,627.69"/>
	<path fill="none" stroke="#000000" stroke-width="2" d="M314.941,651.204c24.056,19.885,48.596,38.471,74.367,56.084
		c13.949,9.534,39.254,26.333,56.378,16.69c62.147-34.993,124.295-69.987,186.442-104.98
		c37.359-21.037,74.719-42.073,112.078-63.109c11.443-6.443,22.888-12.887,34.331-19.331c9.057-5.1,8.562-7.049,17.383-0.434
		c-118.838,62.359-234.731,131-351.896,196.453c-11.785,6.584-10.757,7.171-23.878,0.763c-17.119-8.36-33.004-19.6-48.857-30.086
		c-31.257-20.676-57.595-48.071-82.711-75.563C297.365,635.528,306.153,643.366,314.941,651.204L314.941,651.204z"/>
	<path fill="none" stroke="#000000" stroke-width="2" d="M314.941,651.204c24.056,19.885,48.596,38.471,74.367,56.084
		c13.949,9.534,39.254,26.333,56.378,16.69c62.147-34.993,124.295-69.987,186.442-104.98
		c37.359-21.037,74.719-42.073,112.078-63.109c11.443-6.443,22.888-12.887,34.331-19.331c9.057-5.1,8.562-7.049,17.383-0.434
		c-118.838,62.359-234.731,131-351.896,196.453c-11.785,6.584-10.757,7.171-23.878,0.763c-17.119-8.36-33.004-19.6-48.857-30.086
		c-31.257-20.676-57.595-48.071-82.711-75.563L314.941,651.204"/>
	<line fill="none" stroke="#000000" stroke-width="2" x1="423.96" y1="774.477" x2="474.913" y2="744.549"/>
	<line fill="none" stroke="#000000" stroke-width="2" x1="423.96" y1="768.066" x2="457.096" y2="748.825"/>
	<line fill="none" stroke="#000000" stroke-width="2" x1="423.96" y1="758.802" x2="514.458" y2="707.497"/>
	<line fill="none" stroke="#000000" stroke-width="2" x1="725.021" y1="600.255" x2="789.866" y2="563.202"/>
	<path fill="none" stroke="#000000" stroke-width="2" d="M552.226,317.722c-0.682,6.471,0.628,10.552-3.233,15.79
		c-4.736,6.426,4.815,8.863,1.848,13.413c-4.373,6.705-2.615,9.006-3.96,16.045c-0.604,3.164,1.414,1.751-1.794,5.373
		c-2.727,3.079-5.454,6.157-8.181,9.235c4.979,2.825,7.553,7.786,8.906,13.183c-11.981,0.788-3.146,8.859-4.631,14.25
		c-0.918,3.333-5.254,3.003-5.486,7.177c-0.29,5.214-0.098,9.335-2.42,13.979c-0.972,1.944-4.506,4.685-4.025,6.7
		c0.981,4.122,2.766,5.956-0.896,8.31c-5.053,3.248,4.713,11.774,1.319,18.56c-3.471,6.939-2.494,13.421-6.227,19.956
		c-4.179,7.316,8.457,11.748,1.822,18.687c-3.244,3.393-5.875,3.851-2.377,7.344c2.076,2.073-4.045,5.354-4.87,7.601
		c-1.327,3.615,2.546,3.667-0.87,8.784c-1.669,2.501,4.966,4.438,4.751,7.016c-0.628,7.524,0.969,14.909-5.306,19.473
		c-4.328,3.148-3.224,9.779-2.854,15.677c0.235,3.746,4.846,13.034,1.182,16.576c-1.953,1.889-8.375,6.116-9.018,8.72
		c-0.263,1.065,2.076,7.154,1.875,9.579c-0.313,3.765-0.609,3.78-0.092,7.165c0.275,1.8,4.335,7.238,2.85,9.264
		c-2.282,3.112-6.112,0.779-6.593-1.781c-0.846-4.506-4.858-5.938-8.533-8.563c-4.223-3.016-13.163-4.929-18.187-4.441
		c-5.617,0.543-5.358,0.773-8.524-3.854c-2.285-3.337-5.104-1.923-8.979-2.817c-6.129-1.415-7.93-6.205-14.164-6.754
		c-8.869-0.782-8.758-3.003-13.405-10.745c-0.901-1.501-5.722-0.592-7.379-0.592c-1.94,0-3.729-4.371-4.704-5.834
		c-3.554-5.332-7.099-2.78-12.009-1.728c-1.792,0.384-6.715,1.647-8.326,0.078c-3.368-3.281,1.209-3.835,1.066-4.63
		c-0.204-1.139,0.707-6.056-0.489-6.056c-3.608,0-7.216,0-10.823,0c-7.561,0-8.646-2.431-14.226-7.851
		c-1.65-1.604-3.284-4.265-5.683-4.265c-5.104,0-4.103-1.936-5.12-6.769c-2.969,1.781-5.938,3.563-8.906,5.344
		c-2.119-6.356-1.806-4.508-6.546-7.061c-4.676-2.519-7.638-6.991-12.695-2.56c-2.391-3.722-1.079-9.616-7.123-6.769
		c5.014-12.012-7.582-7.22-12.115-11.757c-3.021-3.024,1.638-7.328-4.275-6.771c-3.945,0.372-4.96,10.783-9.265,4.275
		c0.946,4.099-9.369,8.774-12.824,11.401c0.475-3.682,0.951-7.363,1.426-11.045c1.568,1.131,3.756,1.391,5.344,2.495
		c0.033-4.887,1.169-7.049,3.919-10.867c3.898-5.413,2.522-5.89-0.355-11.936c1.703-0.666,8.267-2.131,8.14-3.972
		c-0.3-4.353-2.534-8.987,2.019-10.399c3.727-1.156,7.653-0.723,7.653-4.868c0-6.823-1.188-7.127,5.772-7.127
		c5.564,0,2.159-2.771,4.562-6.77c3.221-5.36,5.502-2.049,4.273-8.192c-1.053-5.264,0.696-5.346,5.206-5.346
		c4.032,0,4.729-3.142,6.91-6.411c6.482,7.292,6.004,6.255,14.711,1.784c7.954-4.084,3.748,5.623,12.222,3.506
		c1.509-0.377,6.577-2.649,7.208-0.912c1.213,3.332,1.045,7.021,4.815,7.021c9.819,0,9.077-0.332,10.921,9.263
		c2.851-0.713,5.701-1.425,8.552-2.138c0.119,3.683,0.238,7.364,0.356,11.047c1.958-0.078,8.546-1.442,9.186,0.479
		c1.301,3.907,2.749,6.822,5.726,9.801c4.396,4.396,4.179,0.762,9.492,0.762c5.627,0,5.619,1.118,8.964,5.749
		c1.416,1.962,7.254-0.168,7.742,1.991c0.37,1.638,1.536,10.533,2.986,10.356c2.507-0.307,12.058-3.052,13.979-1.706
		c1.665,1.166,2.05,10.263,2.491,12.47c1.317-1.316,6.373-4.901,5.881-6.705c-0.729-2.678-3.635-8.455-3.028-11.108
		c0.956-4.185,5.176,0.75,4.633-6.592c-0.326-4.4,0.131-7.624,1.426-11.935c0.758-2.521,3.63-6.311,1.244-8.019
		c-2.622-1.877,0.105-6.394,1.405-8.779c1.831-3.359,4.244-3.313,2.757-7.214c-2.228-5.845-1.194-5.548,3.143-10.192
		c6.128-6.564,3.198-9.871,2.878-18.856c-0.11-3.104,2.29-6.024,4.128-8.273c2.189-2.678-3.076-5.334-1.147-8.503
		c4.289-7.044,10-12.081,7.503-20.126c-2.89-9.306,7.233-13.305,6.593-21.554c-0.155-2.004-4.799-5.451-3.583-7.275
		c2.388-3.583,4.775-7.166,7.163-10.748c1.221-1.832-1.385-7.963-1.856-10.004c-1.317-5.706,0.053-5.006,5.223-7.958
		c3.151-1.8,6.557-2.101,5.741-5.822c-0.392-1.787-2.976-8.519-1.344-9.563c6.829-4.369,12.524-8.576,11.989-17.57
		c-0.465-7.796-13.044-16.223-18.172-21.483c-14.727-15.106-29.452-30.212-44.178-45.318c-4.503-4.619-59.039-65.577-62.264-63.721
		c-27.403,15.777-54.805,31.554-82.208,47.33c4.279,6.5,8.558,13,12.836,19.501c5.604,8.513,5.629,8.944,3.485,19.05
		c-0.781,3.683-0.548,11.853-4.149,13.882c-4.827,2.721-9.654,5.441-14.48,8.162c-35.685,20.113-71.371,40.227-107.056,60.34
		c-12.796,7.212-13.421,8.26-27.983,4.477c-6.435-1.672-12.301-1.647-16.262-7.006c-2.5-3.382-11.726-20.571-15.625-21.141
		c-1.817-0.265-7.241,4.125-8.75,4.985c-8.002,4.559-16.003,9.117-24.005,13.675c-19.359,11.028-38.717,22.056-58.076,33.084
		c-8.082,4.604-16.165,9.208-24.247,13.813c44.641,44.766,89.282,89.531,133.922,134.298
		c42.423,42.542,83.349,87.659,128.207,127.667c23.464,20.929,47.455,40.858,73.131,59.047
		c11.187,7.925,23.074,18.183,35.658,23.847c7.48,3.366,27.994,13.057,36.046,8.523c53.811-30.3,107.621-60.6,161.432-90.898
		c67.556-38.04,135.375-75.648,202.6-114.271c-25.137,3.716-53.669-17.453-72.86-30.994c-19.603-13.833-39.23-28.412-56.076-45.592
		C635.146,402.29,593.686,360.006,552.226,317.722L552.226,317.722z"/>
	<path fill="none" stroke="#000000" stroke-width="2" d="M552.226,317.722c-0.682,6.471,0.628,10.552-3.233,15.79
		c-4.736,6.426,4.815,8.863,1.848,13.413c-4.373,6.705-2.615,9.006-3.96,16.045c-0.604,3.164,1.414,1.751-1.794,5.373
		c-2.727,3.079-5.454,6.157-8.181,9.235c4.979,2.825,7.553,7.786,8.906,13.183c-11.981,0.788-3.146,8.859-4.631,14.25
		c-0.918,3.333-5.254,3.003-5.486,7.177c-0.29,5.214-0.098,9.335-2.42,13.979c-0.972,1.944-4.506,4.685-4.025,6.7
		c0.981,4.122,2.766,5.956-0.896,8.31c-5.053,3.248,4.713,11.774,1.319,18.56c-3.471,6.939-2.494,13.421-6.227,19.956
		c-4.179,7.316,8.457,11.748,1.822,18.687c-3.244,3.393-5.875,3.851-2.377,7.344c2.076,2.073-4.045,5.354-4.87,7.601
		c-1.327,3.615,2.546,3.667-0.87,8.784c-1.669,2.501,4.966,4.438,4.751,7.016c-0.628,7.524,0.969,14.909-5.306,19.473
		c-4.328,3.148-3.224,9.779-2.854,15.677c0.235,3.746,4.846,13.034,1.182,16.576c-1.953,1.889-8.375,6.116-9.018,8.72
		c-0.263,1.065,2.076,7.154,1.875,9.579c-0.313,3.765-0.609,3.78-0.092,7.165c0.275,1.8,4.335,7.238,2.85,9.264
		c-2.282,3.112-6.112,0.779-6.593-1.781c-0.846-4.506-4.858-5.938-8.533-8.563c-4.223-3.016-13.163-4.929-18.187-4.441
		c-5.617,0.543-5.358,0.773-8.524-3.854c-2.285-3.337-5.104-1.923-8.979-2.817c-6.129-1.415-7.93-6.205-14.164-6.754
		c-8.869-0.782-8.758-3.003-13.405-10.745c-0.901-1.501-5.722-0.592-7.379-0.592c-1.94,0-3.729-4.371-4.704-5.834
		c-3.554-5.332-7.099-2.78-12.009-1.728c-1.792,0.384-6.715,1.647-8.326,0.078c-3.368-3.281,1.209-3.835,1.066-4.63
		c-0.204-1.139,0.707-6.056-0.489-6.056c-3.608,0-7.216,0-10.823,0c-7.561,0-8.646-2.431-14.226-7.851
		c-1.65-1.604-3.284-4.265-5.683-4.265c-5.104,0-4.103-1.936-5.12-6.769c-2.969,1.781-5.938,3.563-8.906,5.344
		c-2.119-6.356-1.806-4.508-6.546-7.061c-4.676-2.519-7.638-6.991-12.695-2.56c-2.391-3.722-1.079-9.616-7.123-6.769
		c5.014-12.012-7.582-7.22-12.115-11.757c-3.021-3.024,1.638-7.328-4.275-6.771c-3.945,0.372-4.96,10.783-9.265,4.275
		c0.946,4.099-9.369,8.774-12.824,11.401c0.475-3.682,0.951-7.363,1.426-11.045c1.568,1.131,3.756,1.391,5.344,2.495
		c0.033-4.887,1.169-7.049,3.919-10.867c3.898-5.413,2.522-5.89-0.355-11.936c1.703-0.666,8.267-2.131,8.14-3.972
		c-0.3-4.353-2.534-8.987,2.019-10.399c3.727-1.156,7.653-0.723,7.653-4.868c0-6.823-1.188-7.127,5.772-7.127
		c5.564,0,2.159-2.771,4.562-6.77c3.221-5.36,5.502-2.049,4.273-8.192c-1.053-5.264,0.696-5.346,5.206-5.346
		c4.032,0,4.729-3.142,6.91-6.411c6.482,7.292,6.004,6.255,14.711,1.784c7.954-4.084,3.748,5.623,12.222,3.506
		c1.509-0.377,6.577-2.649,7.208-0.912c1.213,3.332,1.045,7.021,4.815,7.021c9.819,0,9.077-0.332,10.921,9.263
		c2.851-0.713,5.701-1.425,8.552-2.138c0.119,3.683,0.238,7.364,0.356,11.047c1.958-0.078,8.546-1.442,9.186,0.479
		c1.301,3.907,2.749,6.822,5.726,9.801c4.396,4.396,4.179,0.762,9.492,0.762c5.627,0,5.619,1.118,8.964,5.749
		c1.416,1.962,7.254-0.168,7.742,1.991c0.37,1.638,1.536,10.533,2.986,10.356c2.507-0.307,12.058-3.052,13.979-1.706
		c1.665,1.166,2.05,10.263,2.491,12.47c1.317-1.316,6.373-4.901,5.881-6.705c-0.729-2.678-3.635-8.455-3.028-11.108
		c0.956-4.185,5.176,0.75,4.633-6.592c-0.326-4.4,0.131-7.624,1.426-11.935c0.758-2.521,3.63-6.311,1.244-8.019
		c-2.622-1.877,0.105-6.394,1.405-8.779c1.831-3.359,4.244-3.313,2.757-7.214c-2.228-5.845-1.194-5.548,3.143-10.192
		c6.128-6.564,3.198-9.871,2.878-18.856c-0.11-3.104,2.29-6.024,4.128-8.273c2.189-2.678-3.076-5.334-1.147-8.503
		c4.289-7.044,10-12.081,7.503-20.126c-2.89-9.306,7.233-13.305,6.593-21.554c-0.155-2.004-4.799-5.451-3.583-7.275
		c2.388-3.583,4.775-7.166,7.163-10.748c1.221-1.832-1.385-7.963-1.856-10.004c-1.317-5.706,0.053-5.006,5.223-7.958
		c3.151-1.8,6.557-2.101,5.741-5.822c-0.392-1.787-2.976-8.519-1.344-9.563c6.829-4.369,12.524-8.576,11.989-17.57
		c-0.465-7.796-13.044-16.223-18.172-21.483c-14.727-15.106-29.452-30.212-44.178-45.318c-4.503-4.619-59.039-65.577-62.264-63.721
		c-27.403,15.777-54.805,31.554-82.208,47.33c4.279,6.5,8.558,13,12.836,19.501c5.604,8.513,5.629,8.944,3.485,19.05
		c-0.781,3.683-0.548,11.853-4.149,13.882c-4.827,2.721-9.654,5.441-14.48,8.162c-35.685,20.113-71.371,40.227-107.056,60.34
		c-12.796,7.212-13.421,8.26-27.983,4.477c-6.435-1.672-12.301-1.647-16.262-7.006c-2.5-3.382-11.726-20.571-15.625-21.141
		c-1.817-0.265-7.241,4.125-8.75,4.985c-8.002,4.559-16.003,9.117-24.005,13.675c-19.359,11.028-38.717,22.056-58.076,33.084
		c-8.082,4.604-16.165,9.208-24.247,13.813c44.641,44.766,89.282,89.531,133.922,134.298
		c42.423,42.542,83.349,87.659,128.207,127.667c23.464,20.929,47.455,40.858,73.131,59.047
		c11.187,7.925,23.074,18.183,35.658,23.847c7.48,3.366,27.994,13.057,36.046,8.523c53.811-30.3,107.621-60.6,161.432-90.898
		c67.556-38.04,135.375-75.648,202.6-114.271c-25.137,3.716-53.669-17.453-72.86-30.994c-19.603-13.833-39.23-28.412-56.076-45.592
		C635.146,402.29,593.686,360.006,552.226,317.722"/>
	<path fill="none" stroke="#000000" stroke-width="2" d="M510.54,322.711c-23.522-25.158-47.046-50.315-70.568-75.473
		c-1.467-1.569-20.581-23.852-21.81-23.16c-5.569,3.141-11.14,6.282-16.71,9.422c-70.603,39.81-141.206,79.62-211.809,119.43
		c-26.997,15.223-53.994,30.445-80.991,45.667c48.377,50.198,96.754,100.397,145.131,150.596
		c36.683,38.063,73.818,77.41,116.985,108.243c13.313,9.509,26.478,18.733,40.414,27.292c6.578,4.04,8.619,0.512,15.265-3.282
		c29.203-16.673,58.407-33.345,87.61-50.018c65.252-37.253,130.505-74.506,195.757-111.759c1.626-0.928,3.251-1.856,4.877-2.784
		c-30.771-23.528-60.416-47.957-88.423-74.728c-27.07-25.876-52.699-53.579-79.388-79.9"/>
	<path fill-rule="evenodd" clip-rule="evenodd" stroke="#000000" stroke-width="2" d="M375.509,434.583
		c6.637,2.198,8.55-1.683,8.55-7.247C384.059,426.293,370.149,425.053,375.509,434.583L375.509,434.583z"/>
	<path fill="none" stroke="#000000" stroke-width="2" d="M375.509,434.583c6.637,2.198,8.55-1.683,8.55-7.247
		C384.059,426.293,370.149,425.053,375.509,434.583"/>
	<path fill-rule="evenodd" clip-rule="evenodd" stroke="#000000" stroke-width="2" d="M282.162,529
		c-2.449-2.122-1.847-5.349,0-7.841l-11.399,11.403C274.562,531.375,278.362,530.188,282.162,529L282.162,529z"/>
	<path fill="none" stroke="#000000" stroke-width="2" d="M282.162,529c-2.449-2.122-1.847-5.349,0-7.841l-11.399,11.403L282.162,529
		"/>
	<path fill="none" stroke="#000000" stroke-width="2" d="M404.368,470.214c-0.119-3.683-0.238-7.364-0.356-11.047
		c-2.851,0.713-5.701,1.425-8.552,2.138c-1.581-8.223-0.24-9.263-8.694-9.263c-8.467,0-3.344-8.835-11.825-6.716
		c-1.476,0.369-6.461,2.585-7.283,1.023c-1.62-3.075-1.784-6.788-5.253-5.007c-9.444,4.849-9.748,7.258-16.822-0.7
		c-1.068,1.602-3.068,6.411-5.054,6.411c-4.987,0-8.32-0.943-7.062,5.346c0.953,4.764,1.075,3.847-3.383,7.469
		c-3.754,3.051,0.6,7.493-5.452,7.493c-5.75,0-5.772-0.885-5.772,4.811c0,6.302-1.565,5.296-7.653,7.185
		c-4.248,1.318-2.441,4.268-2.151,8.486c0.307,4.456-4.14,4.371-8.008,5.885c1.832,3.849,4.475,6.214,1.899,9.791
		c-3.345,4.645-5.423,7.131-5.463,13.012c-1.588-1.104-3.776-1.364-5.344-2.495c-0.475,3.682-0.951,7.363-1.426,11.045
		c3.456-2.627,13.77-7.303,12.824-11.401c3.254,4.92,5.913-0.737,8.598-3.571c4.865-5.136,3.101,4.218,3.874,4.997
		c4.55,4.591,18.21,1.553,13.184,12.826c6.044-2.848,4.732,3.047,7.123,6.769c4.695-4.114,6.23-0.923,10.466,1.358
		c5.853,3.153,6.428,1.221,8.775,8.262c2.969-1.781,5.938-3.563,8.906-5.344c1.877,8.918,2.974,3.427,7.71,8.028
		c2.219,2.156,8.627,10.855,11.662,10.855c2.641,0,15.443,1.739,16.968,0c1.195-1.363,0.346-8.499,0.416-10.215
		C402.268,521.835,403.318,496.025,404.368,470.214"/>
	<path fill="none" stroke="#000000" stroke-width="2" d="M404.368,470.214c-1.255,30.864-3.564,61.865-3.564,92.755
		c0,2.132-4.606,2.127-1.066,5.576c2.017,1.965,7.468-0.1,9.619-0.355c2.682-0.318,4.134-0.09,7.084-1.319
		c2.392-0.997,5.813,6.596,7.165,8.625c1.36,2.041,6.226-0.545,8.194,0.533c2.323,1.272,4.664,7.771,6.062,10.098
		c1.096,1.825,8.029,1.269,10.065,1.447c3.691,0.326,5.852,3.898,9.303,5.622c2.844,1.421,5.722,1.734,8.826,1.451
		c3.034-0.277,3.283,5.508,5.65,6.678c2.665,1.317,8.034-1.537,11.044-1.069c1.921,0.299,8.631,2.803,10.687,3.564
		c2.493,0.924,13.625,12.37,11.992,12.658c11.394-2.012-1.428-8.849,1.8-15.299c3.334-6.664-3.19-9.804,2.061-14.881
		c7.176-6.938,7.266-9.543,6.594-19.534c-0.207-3.077-4.267-11.861-3.204-15.318c0.75-2.442,6.49-3.454,7.837-5.701
		c1.692-2.823,0.845-10.124,1.118-13.407c0.614-7.358-8.26-7.725-1.474-14.738c-14.433-1.956-28.865-3.911-43.298-5.867
		c-1.757-0.238-11.687-0.405-12.066-2.307c-2.284-11.433-0.68-11.983-12.338-10.561c-9.609,1.172-1.827-5.706-7.119-10.481
		c-1.729-1.562-6.042,0.783-7.604-1.379c-2.381-3.296-2.922-5.749-7.004-5.749c-6.866,0-8.261,3.828-13.3-2.887
		C411.965,471.084,414.758,469.798,404.368,470.214"/>
	<polyline fill="none" stroke="#000000" stroke-width="2" points="567.897,240.762 564.698,242.903 567.897,240.762 	"/>
	<path d="M669.797,24.863c-2.653,1.936-4.926,8.079-7.12,9.26c-8.177,4.403-7.446-3.72-10.93,7.918
		c-0.974,3.25-0.828,2.771-4.268,2.771c-2.441,0-2.078,4.688-2.623,6.771c-0.884,3.38,3.014,1.521-0.836,4.729
		c-2.498,2.082-3.868,3.13-5.224,5.961c-1.736,3.627,2.309,5.015-2.822,6.335c-8.382,2.158-9.799,2.269-14.486,9.434
		c-1.467,2.241-6.236,6.84-6.922,8.81c-0.559,1.606,0.481,4.997,0.646,6.703c0.196,2.035-4.01,2.046-5.275,3.278
		c-6.937,6.752-11.84,12.339-11.133,22.835c0.306,4.542-10.319,4.743-12.377,8.155c-2.432,4.032,3.179,12.846-1.604,15.5
		c-4.312,2.391-6.899,9.183-9.515,13.28c-2.264,3.545-2.341,8.708-5.089,10.468c-6.745,4.32-7.244,6.114-9.889,13.787
		c-0.667,1.934-3.772,3.244-5.377,4.376c-1.956,1.382-0.7,5.537-0.586,7.789c0.026-1.386,0.724-2.917,1.06-4.271
		c7.129,5.691,2.775,7.518,1.43,16.03c-5.783-10.971-9.604-4.702-9.953,4.961c-0.091,2.521-2.883,4.395-5.012,5.194
		c-3.144,1.18-2.784,8.836-3.122,12.213c-0.564,5.633-0.019,7.292-4.3,10.718c-4.589,3.673-5.36,3.942-6.011,9.732
		c-0.762,6.789,3.183,14.672,8.448,18.822c-6.692,4.865-7.841,4.786-7.841,13c0,8.484-3.819,6.661-3.39,13.895
		c0.288,4.847-1.882,11.107-6.05,13.773c-1.246,0.797-6.808,3.276-6.462,4.853c0.48,2.191,3.228,8.801,2.361,10.769
		c-1.95,4.432-13.356,3.282-11.968,9.292c2.339,10.129,3.045,11.224-2.651,19.768c-4.103,6.154,2.819,7.733-0.332,14.028
		c-4.413,8.816-6.929,11.232-4.051,20.501c1.666,5.367-4.541,11.515-7.317,16.079c-1.838,3.022-1.944,2.728-0.4,6.017
		c2.096,4.465-0.661,4.032-2.241,8.145c-1.25,3.253-1.267,4.904-1.144,8.42c0.057,1.632,2.21,8.275,1.965,9.261
		c-2.009,8.068-11.714,6.13-8.133,15.543c1.539,4.046-4.093,8.98-5.13,13.806c-0.663,3.088,2.687,1.729,1.336,5.587
		c-1.235,3.535-2.211,6.993-3.124,10.63c-0.651,2.596,0.057,5.599,0.254,8.24c0.276,3.691-5.036,3.416-4.625,4.925
		c2.589,9.52,3.92,10.211-3.028,17.159c-0.787-3.927-1.574-7.853-2.361-11.779c-0.316-1.577-10.653,0.599-12.457,0.82
		c-4.134,0.507-3.481-5.025-4.286-8.581c-1.067-4.72-5.837-0.435-8.097-3.568c-2.38-3.3-2.917-5.752-7.003-5.752
		c-2.915,0-7.755,2.943-9.569,1.124c-2.978-2.984-5.65-5.806-6.997-9.844c-1.464-4.392-5.498-2.489-9.799-2.32
		c-0.12-3.684-0.24-7.366-0.36-11.05c-2.85,0.713-5.7,1.427-8.55,2.14c-1.581-8.221-0.241-9.26-8.693-9.26
		c-8.468,0-3.341-8.839-11.824-6.719c-1.475,0.369-6.462,2.586-7.283,1.024c-1.619-3.077-1.781-6.789-5.251-5.008
		c-9.445,4.848-9.752,7.26-16.829-0.697c-1.066,1.601-3.064,6.409-5.048,6.409c-4.977,0-8.333-0.939-7.062,5.351
		c0.961,4.755,1.059,3.853-3.381,7.466c-3.752,3.054,0.594,7.494-5.456,7.494c-5.75,0-5.773-0.885-5.773,4.811
		c0,6.301-1.566,5.296-7.652,7.188c-4.247,1.319-2.442,4.266-2.152,8.484c0.306,4.455-4.141,4.373-8.006,5.888
		c1.831,3.847,4.474,6.211,1.898,9.787c-3.346,4.646-5.421,7.13-5.458,13.013c-1.59-1.105-3.781-1.367-5.351-2.5
		c-0.473,3.684-0.947,7.366-1.42,11.05c3.452-2.626,13.763-7.307,12.82-11.399c3.254,4.911,5.912-0.744,8.593-3.576
		c4.865-5.139,3.104,4.217,3.876,4.996c4.569,4.61,18.184,1.536,13.19,12.83c6.047-2.857,4.73,3.045,7.12,6.77
		c4.697-4.125,6.222-0.924,10.46,1.355c5.859,3.151,6.431,1.219,8.779,8.265c2.97-1.783,5.94-3.566,8.91-5.35
		c1.014,4.835,0.011,6.77,5.116,6.77c2.87,0,5.587,4.173,7.529,6.06c7.554,7.343,11.139,6.061,21.879,6.061
		c6.797,0-4.479,9.866,1.947,10.866c3.711,0.578,15.878-3.414,16.965-1.783c1.459,2.189,3.78,7.868,6.055,9.087
		c1.974,1.058,6.922-1.529,8.195,0.592c1.487,2.477,3.651,8.605,6.064,10.099c3.035,1.878,8.73-0.225,12.11,1.06
		c2.841,1.08,4.718,4.864,8.199,6.06c1.994,0.685,7.134-0.094,8.54,0.71c2.072,1.184,2.805,6.948,5.458,6.691
		c5.141-0.498,8.925-1.936,13.126,1.12c5.303,3.856,12.625,2.044,17.757,8.579c2.656,3.383-1.569,6.166,4.1,5.165
		c4.999-0.883,2.469-4.845,0.734-8.595c-2.071-4.479-1.089-9.881-0.555-15.45c0.128-1.335-2.675-1.624-1.32-2.935
		c1.629-1.575,3.257-3.15,4.886-4.726c3.884-3.757,5.139-3.773,4.451-8.602c-0.918-6.437,0.08-12.063-0.887-17.938
		c-0.229-1.395-2.551-6.121-1.559-6.842c2.649-1.927,7.121-3.623,7.406-7.057c0.771-9.293,2.835-13.653-3.512-20.429
		c-1.684-1.797,3.74-4.462,2.45-7.042c-2.949-5.896,2.731-4.621,4.124-9.941c0.762-2.912-5.045-1.277-1.657-4.825
		c1.265-1.325,5.988-4.782,6.277-6.574c0.922-5.727-8.421-9.315-4.903-15.463c3.043-5.318,1.355-10.201,3.903-15.297
		c4.811-9.622,4.168-9.969-0.543-19.662c-1.447-2.978,0.591-2.938,3.264-4.656c1.667-1.073-0.397-5.448-0.815-7.204
		c-0.648-2.725,5.797-8.98,6.016-12.941c0.146-2.638-0.627-7.93,0.569-10.287c0.864-1.702,5.779-3.257,5.129-5.29
		c-1.892-5.916-4.304-12.985,4.841-13.59c-1.348-5.396-3.921-10.359-8.899-13.18c3.554-4.014,7.107-8.028,10.661-12.042
		c0.44-0.497-1.159-9.259-0.875-11.254c0.385-2.707,6.574-8.443,4.864-10.153c-4.791-4.792-5.103-7.181-1.088-12.628
		c2.419-3.28,4.178-20.787,2.838-24.786c-2.053-6.125,0.403-6.842,4.802-11.901c1.085-1.248-1.49-3.805-2.239-4.993
		c-2.041-3.236-0.773-3.845,0.987-7.373c2.616-5.245,4.997-6.829,9.797-10.35c4.724-3.463,1.793-4.559,3.754-9.456
		c1.278-3.193,7.755-7.682,8.179-9.414c1.418-5.795-4.119-7.423-0.958-13.743c3.713-7.427-0.395-14.326,1.848-21.882
		c1.271-4.278,5.843-8.033,10.16-8.905c3.728-0.753,3.094-10.347,3.561-13.9c-2.73,0.597-5.46,1.193-8.19,1.79
		c5.847-8.353,1.054-21.849,15.32-20.31c-0.188-2.981-1.765-8.664-0.721-11.4c1.604-4.202,8.011-4.314,7.7-9.461
		c-0.3-4.95-1.296-8.309,1.391-12.453c2.398-3.701,0.285-6.753,1.244-11.581c0.294-1.477-0.543-7.647,0-8.19
		c2.119-2.118,9.542-3.057,9.795-4.815c0.669-4.635,3.038-5.435,5.171-9.08c1.839-3.142,2.85,0.144,2.85-4.689
		c0-1.275-0.723-5.404,0.399-6.33c4.123-3.403,8.246-6.806,12.368-10.208c3.626-2.993-0.312-8.157,1.482-11.913
		c1.574-3.295,7.822-4.495,9.26-7.84c1.396-3.25-0.427-9.012,0.72-11.75c0.457-1.092,3.371-1.074,3.921-2.141
		c0.929-1.803-1.108-5.458,0-7.13c1.546-2.332,7.245-1.631,7.757-3.506c2.184-7.997,8.278-13.369,11.123-21.074
		C673.174,23.414,671.26,23.905,669.797,24.863z M546.877,246.462c-2.61,0-5.22,0-7.83,0c0.605-2.684,0.953-11.04,3.875-11.04
		C549.367,235.422,546.877,240.743,546.877,246.462z M567.897,249.323c-3.206,7.279-9.642,0.755-3.199-6.42
		C567.181,244.406,568.303,246.541,567.897,249.323z"/>
	<path fill="none" stroke="#000000" stroke-width="2" d="M680.842,8.471c-0.593,3.087-1.187,6.175-1.779,9.263
		c3.682-1.544,7.363-3.088,11.045-4.632C687.482,9.046,686.28,5.076,680.842,8.471L680.842,8.471L680.842,8.471z"/>
	<path d="M680.842,8.471c-0.593,3.087-1.187,6.175-1.779,9.263c3.682-1.544,7.363-3.088,11.045-4.632
		C687.482,9.046,686.28,5.076,680.842,8.471"/>
	<line fill="none" stroke="#000000" stroke-width="2" x1="383.703" y1="430.667" x2="432.87" y2="481.255"/>
	<line fill="none" stroke="#000000" stroke-width="2" x1="356.625" y1="646.215" x2="453.175" y2="590.993"/>
	<line fill="none" stroke="#000000" stroke-width="2" x1="334.179" y1="627.333" x2="424.673" y2="576.029"/>
	<line fill="none" stroke="#000000" stroke-width="2" x1="314.941" y1="609.875" x2="400.449" y2="561.064"/>
	<line fill="none" stroke="#000000" stroke-width="2" x1="271.118" y1="313.804" x2="379.785" y2="426.39"/>
	<line fill="none" stroke="#000000" stroke-width="2" x1="276.106" y1="311.311" x2="456.028" y2="498.715"/>
	<path fill="none" stroke="#000000" stroke-width="2" d="M514.817,558.215c20.063,17.475,39.662,27.463,64.84,35.627"/>
	<path fill="none" stroke="#000000" stroke-width="2" d="M512.678,551.446c21.328,18.352,42.657,32.663,69.829,40.614"/>
	<line fill="none" stroke="#000000" stroke-width="2" x1="382.99" y1="666.168" x2="493.436" y2="603.82"/>
	<line fill="none" stroke="#000000" stroke-width="2" x1="508.044" y1="595.269" x2="539.756" y2="577.097"/>
	<line fill="none" stroke="#000000" stroke-width="2" x1="544.03" y1="575.316" x2="685.83" y2="494.083"/>
	<line fill="none" stroke="#000000" stroke-width="2" x1="516.594" y1="555.007" x2="660.535" y2="473.418"/>
	<line fill="none" stroke="#000000" stroke-width="2" x1="516.951" y1="523.298" x2="638.802" y2="454.182"/>
	<line fill="none" stroke="#000000" stroke-width="2" x1="525.5" y1="489.809" x2="619.917" y2="436.009"/>
	<line fill="none" stroke="#000000" stroke-width="2" x1="120.054" y1="400.025" x2="417.905" y2="230.433"/>
	<line fill="none" stroke="#000000" stroke-width="2" x1="132.88" y1="423.895" x2="290.355" y2="333.756"/>
	<line fill="none" stroke="#000000" stroke-width="2" x1="295.344" y1="331.261" x2="441.063" y2="248.605"/>
	<line fill="none" stroke="#000000" stroke-width="2" x1="155.326" y1="447.054" x2="312.802" y2="357.271"/>
	<line fill="none" stroke="#000000" stroke-width="2" x1="317.433" y1="354.42" x2="463.155" y2="272.12"/>
	<line fill="none" stroke="#000000" stroke-width="2" x1="176.347" y1="468.788" x2="333.823" y2="379.002"/>
	<line fill="none" stroke="#000000" stroke-width="2" x1="338.455" y1="376.509" x2="483.461" y2="293.852"/>
	<line fill="none" stroke="#000000" stroke-width="2" x1="195.586" y1="488.74" x2="353.418" y2="398.957"/>
	<line fill="none" stroke="#000000" stroke-width="2" x1="357.694" y1="396.461" x2="502.347" y2="313.804"/>
	<line fill="none" stroke="#000000" stroke-width="2" x1="214.826" y1="509.047" x2="372.659" y2="418.907"/>
	<line fill="none" stroke="#000000" stroke-width="2" x1="377.29" y1="416.77" x2="505.907" y2="343.375"/>
	<line fill="none" stroke="#000000" stroke-width="2" x1="234.065" y1="529" x2="309.24" y2="486.602"/>
	<line fill="none" stroke="#000000" stroke-width="2" x1="379.785" y1="445.985" x2="391.897" y2="439.217"/>
	<line fill="none" stroke="#000000" stroke-width="2" x1="396.173" y1="436.366" x2="495.218" y2="380.787"/>
	<line fill="none" stroke="#000000" stroke-width="2" x1="253.661" y1="548.951" x2="315.654" y2="513.679"/>
	<line fill="none" stroke="#000000" stroke-width="2" x1="404.368" y1="464.156" x2="411.493" y2="459.523"/>
	<line fill="none" stroke="#000000" stroke-width="2" x1="415.766" y1="456.674" x2="486.313" y2="416.414"/>
	<line fill="none" stroke="#000000" stroke-width="2" x1="543.317" y1="384.348" x2="559.351" y2="375.085"/>
	<line fill="none" stroke="#000000" stroke-width="2" x1="272.897" y1="568.903" x2="335.603" y2="533.274"/>
	<line fill="none" stroke="#000000" stroke-width="2" x1="426.459" y1="481.968" x2="431.087" y2="479.119"/>
	<line fill="none" stroke="#000000" stroke-width="2" x1="434.652" y1="476.983" x2="479.899" y2="451.331"/>
	<line fill="none" stroke="#000000" stroke-width="2" x1="535.836" y1="419.62" x2="579.299" y2="394.681"/>
	<line fill="none" stroke="#000000" stroke-width="2" x1="293.208" y1="588.855" x2="368.74" y2="545.389"/>
	<line fill="none" stroke="#000000" stroke-width="2" x1="454.246" y1="496.933" x2="472.062" y2="486.602"/>
	<line fill="none" stroke="#000000" stroke-width="2" x1="530.846" y1="453.111" x2="599.254" y2="414.277"/>
</g>
</svg>
